<?xml version="1.0" encoding="utf-8"?>
<!-- Generator: Adobe Illustrator 21.0.2, SVG Export Plug-In . SVG Version: 6.00 Build 0)  -->
<svg version="1.1" id="Layer_1" xmlns="http://www.w3.org/2000/svg" xmlns:xlink="http://www.w3.org/1999/xlink" x="0px" y="0px"
	 width="95.1px" height="52px" viewBox="0 0 95.1 52" style="enable-background:new 0 0 95.1 52;" xml:space="preserve">
<g>
	<path d="M40.2,0.7c0.3,0,0.4,0,0.6,0c6.7,0,13.4,0,20.2,0c0.5,0,0.7,0.1,0.7,0.7c0,1.4,0,1.4-1.3,1.7c-0.3,0.1-0.5,0.1-0.8,0.2
		c-1.5,0.4-2,1-2,2.5c0,0.6,0,1.3,0,1.9c0,9.6,0,19.3,0,28.9c0,2.3-0.3,4.6-1.3,6.7c-1.9,4.3-5.3,6.9-9.9,8.1
		c-3.4,0.9-6.9,1-10.3-0.1c-1.8-0.6-3.3-1.6-4.1-3.4c-0.7-1.8-0.3-3.9,0.9-5c0.7-0.7,1.7-1,2.7-1.1c0.8-0.1,1.6,0,2.4,0.1
		c1.7,0.3,2.7,1.5,3.1,3.1c0.3,1.1,0.5,2.2,0.8,3.3c0,0.1,0,0.2,0.1,0.3c0.2,0.3,0.3,0.7,0.5,0.8c0.4,0.2,1,0.1,1.2-0.3
		c0.3-0.4,0.5-0.9,0.6-1.5c0.1-0.5,0.1-1,0.1-1.4c0-13.1,0-26.1,0-39.2c0-0.6-0.1-1.3-0.2-1.9c-0.1-0.9-0.7-1.4-1.5-1.6
		C42,3.1,41.3,3,40.6,2.8c-0.2,0-0.4-0.2-0.4-0.3C40.2,1.9,40.2,1.3,40.2,0.7z"/>
	<path d="M12.7,40.7c-4.3,0-8.4,0-12.7,0c0-0.6,0-1.2,0-1.7c0-0.1,0.2-0.3,0.3-0.3c0.2-0.1,0.5-0.2,0.8-0.2c1.5-0.3,2.5-1.3,3-2.7
		c0.8-2,1.6-4.1,2.4-6.1c3.5-9.4,6.9-18.9,10.4-28.3c0.2-0.5,0.4-0.6,0.9-0.6c2,0,4,0,6,0c0.5,0,0.7,0.2,0.9,0.6
		c4,10.7,8.1,21.4,12.1,32c0.4,1,0.8,2,1.3,3c0.6,1.2,1.5,2,2.8,2.2c0.5,0.1,0.8,0.3,0.7,0.9c-0.1,0.4,0,0.8,0,1.3
		c-7.3,0-14.6,0-22,0c0-0.6,0-1.2,0-1.8c0-0.1,0.2-0.2,0.4-0.2c0.5-0.2,1.1-0.3,1.6-0.4c1.4-0.5,2.2-1.5,1.8-2.9
		c-0.5-2.1-1.2-4.1-1.9-6.1c0-0.1-0.4-0.2-0.5-0.3c-2.6,0-5.2,0-7.8,0c-0.7,0-1.5,0-2.2,0c-0.2,0-0.5,0.2-0.5,0.3
		c-0.6,1.7-1.1,3.4-1.6,5.1c-0.2,0.6-0.1,1.3-0.1,2s0.5,1.2,1.1,1.4c0.8,0.3,1.7,0.6,2.6,0.8c0.3,0.1,0.5,0.2,0.4,0.5
		C12.7,39.6,12.7,40.1,12.7,40.7z M20.2,25.9c-1.5-4.3-2.9-8.5-4.3-12.8c-0.1,0-0.1,0-0.2,0c-1.4,4.2-2.9,8.5-4.3,12.8
		C14.4,25.9,17.3,25.9,20.2,25.9z"/>
	<path d="M94.8,13.7c-0.7,0-1.3,0-1.9,0c-0.2,0-0.4-0.3-0.5-0.5c-1.5-2.4-3-4.8-4.5-7.2c-0.4-0.6-0.9-1.2-1.5-1.7
		C83.1,1.4,78,2.5,76.2,6.5c-0.7,1.7-1.1,3.5-1.3,5.4c-0.2,2.5-0.3,5-0.4,7.6c0,3.4,0,6.8,0.5,10.1c0.2,1.9,0.6,3.7,1.4,5.4
		c1,2.2,2.7,3.4,5.2,3.7c2.6,0.2,4.6-0.7,6.2-2.7c2-2.4,3.4-5.1,4.7-8c0.4-0.9,0.9-1.3,1.9-1.2c0.8,0.1,0.7,0,0.7,0.8
		c-0.1,1.4-0.2,2.9-0.2,4.3c-0.1,2.2-0.2,4.5-0.4,6.7c0,0.4-0.2,0.5-0.5,0.6c-3,1-6.1,1.7-9.2,2c-3.8,0.3-7.5,0.1-11.1-1.1
		C67,38,62.9,33.4,61.4,26.5c-1-4.5-0.8-9.1,0.7-13.5c2.1-6,6.4-9.8,12.4-11.7C78.3,0,82.1-0.1,86,0.1c2.5,0.2,5,0.5,7.5,1.1
		C93.9,1.3,94,1.4,94,1.8c0.2,2.9,0.3,5.9,0.5,8.8C94.6,11.6,94.7,12.6,94.8,13.7z"/>
</g>
</svg>
